<svg id="Layer_1" data-name="Layer 1" xmlns="http://www.w3.org/2000/svg" viewBox="0 0 577.7 537.13"><defs><style>.cls-1{fill:#554a58;}.cls-2{fill:#d4a169;}.cls-3{fill:#a37857;}.cls-4,.cls-7,.cls-9{fill:none;}.cls-5{fill:#474c4d;}.cls-6{fill:#1c1e24;}.cls-7{stroke:#94785d;stroke-width:5px;}.cls-7,.cls-9{stroke-linecap:round;stroke-miterlimit:10;}.cls-8{fill:#f5b2b5;}.cls-9{stroke:#d0bda7;stroke-width:3px;}</style></defs><path class="cls-1" d="M99.78,228.71C56.73,272.09,38,316.67,37.45,318l0,0s-47.69-54-7-105.56C75.22,180.83,99.23,227.61,99.78,228.71Z" transform="translate(-13.99 -146.47)"/><path class="cls-1" d="M566,318.05l0,0c-.54-1.32-19.08-46.78-64.23-90.57,0,0,32.18-51.7,72.84-9.47C617.59,259.78,566,318.05,566,318.05Z" transform="translate(-13.99 -146.47)"/><path class="cls-2" d="M566,318.05s-71.16-64.11-152.48-50.82c-74.67,20.57-69.49,110.14-67.08,132v0c.13,1,.23,1.92.33,2.64-.88-3.39-4.17-9.85-16.63-13.22h-.06c-6.59-1.78-15.71-2.68-28.36-1.82-1.53,0-3.15,0-4.84.09-.56,0-1.13,0-1.68.07a.06.06,0,0,1-.08,0q-4.68.24-8.56.78c-.43.07-.86.11-1.28.19-22.19,3.4-25.3,13.46-25.71,15.65q.09-.67.27-2.28v-.07c1.75-17,7.31-107.25-68.36-134.83-73.5-10.17-154,51.6-154,51.6l0,0c.55-1.35,19.28-45.93,62.33-89.31,43.61-43.9,112.17-86.57,212.1-81.89,88.39,4,149.67,41.67,189.86,80.63C546.89,271.24,565.43,316.7,566,318Z" transform="translate(-13.99 -146.47)"/><path class="cls-2" d="M347.06,404c0-.23-.15-.93-.3-2.09A8.3,8.3,0,0,1,347.06,404Z" transform="translate(-13.99 -146.47)"/><path class="cls-3" d="M213.75,292.63c-62.55-50-125.6,27-135.65,39.49-4.15,5.18-5,10.77-3.41,12.11,2.26,1.93,8.4-1.4,7.71,1.58-.21.9-6.32,12.57-2.74,16.45,2.06,2.22,7.6-1.18,9,3.49,1.18,3.92-5.37,22.2,2,26.5,2.17.2,9.14-3.05,8.91,1.61.23,8.24-2.31,16.06,11.36,16.44,9.78,9.39,1.58,10.95,14.09,16s6.24,6.05,12.11,5.49c10.16-.14,27.76,7,67.63-25.82C231.34,381.76,257.2,348.38,213.75,292.63ZM169.5,400.14a55.1,55.1,0,1,1,55.09-55.09A55.08,55.08,0,0,1,169.5,400.14Z" transform="translate(-13.99 -146.47)"/><path class="cls-4" d="M157,335.8a9,9,0,1,1-9-9A9,9,0,0,1,157,335.8Z" transform="translate(-13.99 -146.47)"/><path class="cls-4" d="M178.94,323.27a7.69,7.69,0,1,1-7.7-7.68A7.69,7.69,0,0,1,178.94,323.27Z" transform="translate(-13.99 -146.47)"/><path class="cls-4" d="M169.5,290a55.1,55.1,0,1,0,55.09,55.1A55.09,55.09,0,0,0,169.5,290Zm1.54,103a44.21,44.21,0,1,1,44.21-44.2A44.21,44.21,0,0,1,171,392.92Z" transform="translate(-13.99 -146.47)"/><path class="cls-3" d="M523.44,332.12c-10.05-12.52-73.12-89.52-135.66-39.49-43.44,55.75-17.6,89.13,9,113.37,39.87,32.84,57.46,25.68,67.63,25.82,5.86.56-.4-.4,12.11-5.49s4.3-6.64,14.07-16c13.69-.38,11.15-8.2,11.38-16.44-.23-4.66,6.72-1.41,8.91-1.61,7.36-4.3.81-22.58,2-26.5,1.41-4.67,7-1.27,9-3.49,3.59-3.88-2.52-15.55-2.74-16.45-.69-3,5.44.35,7.7-1.58C528.43,342.89,527.58,337.3,523.44,332.12Zm-91,68.67a55.09,55.09,0,1,1,55.09-55.09A55.09,55.09,0,0,1,432.49,400.79Z" transform="translate(-13.99 -146.47)"/><path class="cls-4" d="M436.07,324.8a7.7,7.7,0,1,1-7.7-7.68A7.71,7.71,0,0,1,436.07,324.8Z" transform="translate(-13.99 -146.47)"/><path class="cls-4" d="M462.6,335.8a9,9,0,1,1-9-9A9,9,0,0,1,462.6,335.8Z" transform="translate(-13.99 -146.47)"/><path class="cls-4" d="M432.49,290.61a55.09,55.09,0,1,0,55.09,55.09A55.1,55.1,0,0,0,432.49,290.61Zm-1.52,103a44.21,44.21,0,1,1,44.2-44.22A44.22,44.22,0,0,1,431,393.58Z" transform="translate(-13.99 -146.47)"/><path class="cls-4" d="M157,335.8a9,9,0,1,1-9-9A9,9,0,0,1,157,335.8Z" transform="translate(-13.99 -146.47)"/><path class="cls-4" d="M178.94,323.27a7.69,7.69,0,1,1-7.7-7.68A7.69,7.69,0,0,1,178.94,323.27Z" transform="translate(-13.99 -146.47)"/><path class="cls-4" d="M169.5,290a55.1,55.1,0,1,0,55.09,55.1A55.09,55.09,0,0,0,169.5,290Zm1.54,103a44.21,44.21,0,1,1,44.21-44.2A44.21,44.21,0,0,1,171,392.92Z" transform="translate(-13.99 -146.47)"/><path class="cls-5" d="M171,304.5a44.21,44.21,0,1,0,44.21,44.22A44.22,44.22,0,0,0,171,304.5Zm-23,40.32a9,9,0,1,1,9-9A9,9,0,0,1,148,344.82ZM171.24,331a7.69,7.69,0,1,1,7.7-7.7A7.69,7.69,0,0,1,171.24,331Z" transform="translate(-13.99 -146.47)"/><path class="cls-4" d="M157,335.8a9,9,0,1,1-9-9A9,9,0,0,1,157,335.8Z" transform="translate(-13.99 -146.47)"/><path class="cls-4" d="M178.94,323.27a7.69,7.69,0,1,1-7.7-7.68A7.69,7.69,0,0,1,178.94,323.27Z" transform="translate(-13.99 -146.47)"/><path class="cls-4" d="M436.07,324.8a7.7,7.7,0,1,1-7.7-7.68A7.71,7.71,0,0,1,436.07,324.8Z" transform="translate(-13.99 -146.47)"/><path class="cls-4" d="M462.6,335.8a9,9,0,1,1-9-9A9,9,0,0,1,462.6,335.8Z" transform="translate(-13.99 -146.47)"/><path class="cls-4" d="M432.49,290.61a55.09,55.09,0,1,0,55.09,55.09A55.1,55.1,0,0,0,432.49,290.61Zm-1.52,103a44.21,44.21,0,1,1,44.2-44.22A44.22,44.22,0,0,1,431,393.58Z" transform="translate(-13.99 -146.47)"/><path class="cls-5" d="M431,305.16a44.21,44.21,0,1,0,44.2,44.2A44.22,44.22,0,0,0,431,305.16Zm-2.6,27.35a7.7,7.7,0,1,1,7.7-7.71A7.7,7.7,0,0,1,428.37,332.51Zm25.21,12.31a9,9,0,1,1,9-9A9,9,0,0,1,453.58,344.82Z" transform="translate(-13.99 -146.47)"/><path class="cls-4" d="M436.07,324.8a7.7,7.7,0,1,1-7.7-7.68A7.71,7.71,0,0,1,436.07,324.8Z" transform="translate(-13.99 -146.47)"/><path class="cls-4" d="M462.6,335.8a9,9,0,1,1-9-9A9,9,0,0,1,462.6,335.8Z" transform="translate(-13.99 -146.47)"/><path class="cls-4" d="M157,335.8a9,9,0,1,1-9-9A9,9,0,0,1,157,335.8Z" transform="translate(-13.99 -146.47)"/><path class="cls-4" d="M178.94,323.27a7.69,7.69,0,1,1-7.7-7.68A7.69,7.69,0,0,1,178.94,323.27Z" transform="translate(-13.99 -146.47)"/><path class="cls-4" d="M462.6,335.8a9,9,0,1,1-9-9A9,9,0,0,1,462.6,335.8Z" transform="translate(-13.99 -146.47)"/><path class="cls-4" d="M436.07,324.8a7.7,7.7,0,1,1-7.7-7.68A7.71,7.71,0,0,1,436.07,324.8Z" transform="translate(-13.99 -146.47)"/><path class="cls-6" d="M346.76,401.9c0,14.37-2.94,34.28-40.52,36-1.77.08-3.61.12-5.54.12q-4.15,0-7.78-.26c-34.85-2.45-33.38-21.71-33.36-34.17.41-2.19,3.52-12.25,25.71-15.65.42-.08.85-.12,1.28-.19,2.88-.36,5.77-.61,8.56-.78a.06.06,0,0,0,.08,0c.56,0,1.13,0,1.68-.07,1.69-.06,3.31-.09,4.84-.09,8.12,0,19.22,0,28.36,1.82h.06C342.59,392.05,345.88,398.51,346.76,401.9Z" transform="translate(-13.99 -146.47)"/><path class="cls-6" d="M374.23,469.53s0,14.08-1.57,22.29c-3.86,6.68-14.65,15.05-21.49,15.05h-102c-3.32,0-12.91-3.92-20.53-16.61-3-13.11,1.58-20.33,1.58-20.33s11.52,25.8,29.36,26,33.18-7.24,33.37-22.47c.15-11.9.06-28.8,0-35.65q3.63.26,7.78.26c1.93,0,3.77,0,5.54-.12.06,6.78.23,23,.35,36.29-.19,14.07,15.06,22.28,32.07,21.11C357,494.94,374.23,469.53,374.23,469.53Z" transform="translate(-13.99 -146.47)"/><line class="cls-7" x1="211.82" y1="281.29" x2="163.79" y2="281.85"/><line class="cls-7" x1="207.91" y1="291.59" x2="153.04" y2="314.07"/><line class="cls-7" x1="218.92" y1="291.59" x2="153.24" y2="356.29"/><line class="cls-7" x1="216.96" y1="314.66" x2="181.58" y2="365.09"/><line class="cls-7" x1="361.71" y1="281.04" x2="409.74" y2="281.59"/><line class="cls-7" x1="365.63" y1="291.34" x2="420.49" y2="313.82"/><line class="cls-7" x1="354.61" y1="291.34" x2="420.29" y2="356.04"/><line class="cls-7" x1="356.57" y1="314.4" x2="391.95" y2="364.83"/><circle class="cls-8" cx="82.62" cy="305.75" r="33.1"/><circle class="cls-8" cx="490.81" cy="305.75" r="33.1"/><path class="cls-9" d="M73.94,306.71c-23.34,11.86-38.19,31.9-43.54,61" transform="translate(-13.99 -146.47)"/><path class="cls-9" d="M43.3,372.39Q33.92,382,24.54,400.14" transform="translate(-13.99 -146.47)"/><path class="cls-9" d="M41.35,407.18c-10.29,14.49-17.56,34.88-22.28,60.59" transform="translate(-13.99 -146.47)"/><path class="cls-9" d="M41.35,456.44a97.12,97.12,0,0,0-8.86,46.65" transform="translate(-13.99 -146.47)"/><path class="cls-9" d="M56.47,506.87c-5.89,16.73-7.41,34.73-3.39,54.34" transform="translate(-13.99 -146.47)"/><path class="cls-9" d="M79.4,553.65Q67.81,567.08,69.24,590.4" transform="translate(-13.99 -146.47)"/><path class="cls-9" d="M94.32,566.68c-2.25,24.76.45,44.23,11.92,54.34" transform="translate(-13.99 -146.47)"/><path class="cls-9" d="M126.82,627.08c1.68,16.81,5.42,30.11,15.19,33" transform="translate(-13.99 -146.47)"/><path class="cls-9" d="M159.8,649.36c.89,10.36,2.85,20,7.62,27.95" transform="translate(-13.99 -146.47)"/><path class="cls-9" d="M556.21,374.73c10,8.31,12.84,18.59,18,29.26" transform="translate(-13.99 -146.47)"/><path class="cls-9" d="M559.33,414.41c9,14,13.65,28.62,12.32,44.08" transform="translate(-13.99 -146.47)"/><path class="cls-9" d="M556.21,456.14A198.19,198.19,0,0,1,566,516.25" transform="translate(-13.99 -146.47)"/><path class="cls-9" d="M543.21,505.79c2.84,16.62,3.39,32.38.68,46.91" transform="translate(-13.99 -146.47)"/><path class="cls-9" d="M513.5,555c10.68,7.84,16.26,18.88,13.87,34.89" transform="translate(-13.99 -146.47)"/><path class="cls-9" d="M502,571.47c.82,27.26-4.67,43.87-15.93,50.72" transform="translate(-13.99 -146.47)"/><path class="cls-9" d="M437.56,642.13a91.9,91.9,0,0,1-11.73,40" transform="translate(-13.99 -146.47)"/></svg>